<?xml version="1.0" standalone="no"?><!DOCTYPE svg PUBLIC "-//W3C//DTD SVG 1.1//EN" "http://www.w3.org/Graphics/SVG/1.1/DTD/svg11.dtd"><svg t="1749369315034" class="icon" viewBox="0 0 1024 1024" version="1.1" xmlns="http://www.w3.org/2000/svg" p-id="6973" xmlns:xlink="http://www.w3.org/1999/xlink" width="200" height="200"><path d="M704 512c0 32-19.2 57.6-38.4 57.6-25.6 0-44.8-25.6-44.8-57.6s19.2-57.6 38.4-57.6c25.6 0 44.8 25.6 44.8 57.6zM556.8 512c0 32-19.2 57.6-44.8 57.6-25.6 0-44.8-25.6-44.8-57.6s19.2-57.6 44.8-57.6 44.8 25.6 44.8 57.6zM403.2 512c0 32-19.2 57.6-44.8 57.6S320 544 320 512s19.2-57.6 44.8-57.6 38.4 25.6 38.4 57.6zM512 838.4l345.6-281.6 57.6 51.2L512 934.4 51.2 556.8l-51.2 44.8L512 1024l512-422.4-512-416-345.6 281.6-57.6-51.2L512 89.6l460.8 371.2 51.2-44.8L512 0 0 416l512 422.4z" p-id="6974" fill="#2c2c2c"></path></svg>