<?xml version="1.0" standalone="no"?><!DOCTYPE svg PUBLIC "-//W3C//DTD SVG 1.1//EN" "http://www.w3.org/Graphics/SVG/1.1/DTD/svg11.dtd"><svg t="1749974902455" class="icon" viewBox="0 0 1024 1024" version="1.1" xmlns="http://www.w3.org/2000/svg" p-id="2346" xmlns:xlink="http://www.w3.org/1999/xlink" width="200" height="200"><path d="M568.888889 113.777778v113.777778l39.822222 11.377777c11.377778 5.688889 17.066667 5.688889 28.444445 11.377778l34.133333 17.066667 28.444444-28.444445 51.2-51.2 45.511111 45.511111 39.822223 39.822223-56.888889 56.888889-28.444445 28.444444 17.066667 34.133333c5.688889 5.688889 5.688889 17.066667 11.377778 22.755556l17.066666 39.822222h113.777778v113.777778h-113.777778l-11.377777 39.822222c-5.688889 11.377778-5.688889 17.066667-11.377778 28.444445l-17.066667 34.133333 28.444445 28.444444 56.888889 56.888889-79.644445 79.644445-56.888889-56.888889-28.444444-28.444445-34.133334 17.066667c-11.377778 5.688889-17.066667 5.688889-28.444444 11.377778l-45.511111 17.066666v113.777778H455.111111v-113.777778l-39.822222-11.377777c-5.688889 0-17.066667-5.688889-22.755556-11.377778l-34.133333-17.066667-28.444444 28.444445-56.888889 56.888889-39.822223-45.511112-39.822222-39.822222 51.2-51.2 28.444445-28.444444-17.066667-34.133334c-5.688889-11.377778-5.688889-17.066667-11.377778-28.444444L227.555556 568.888889H113.777778V455.111111h113.777778l11.377777-39.822222c5.688889-5.688889 11.377778-17.066667 17.066667-28.444445l17.066667-34.133333-28.444445-28.444444-51.2-51.2 79.644445-79.644445 51.2 51.2 28.444444 28.444445 34.133333-17.066667c11.377778-5.688889 22.755556-11.377778 28.444445-11.377778L455.111111 227.555556V113.777778h113.777778m56.888889-56.888889H398.222222v130.844444l-34.133333 17.066667L273.066667 113.777778 113.777778 273.066667l91.022222 91.022222-17.066667 34.133333H56.888889v227.555556h130.844444c5.688889 11.377778 11.377778 22.755556 11.377778 34.133333l-96.711111 96.711111 79.644444 79.644445 79.644445 79.644444 96.711111-96.711111c11.377778 5.688889 17.066667 5.688889 28.444444 11.377778V967.111111h227.555556v-130.844444c11.377778-5.688889 22.755556-11.377778 34.133333-11.377778l96.711111 96.711111 159.288889-159.288889-96.711111-96.711111c5.688889-11.377778 11.377778-22.755556 11.377778-34.133333H967.111111V398.222222h-130.844444c-5.688889-11.377778-5.688889-17.066667-11.377778-28.444444l96.711111-96.711111-79.644444-79.644445L762.311111 113.777778l-96.711111 96.711111c-11.377778-5.688889-22.755556-11.377778-34.133333-11.377778V56.888889H625.777778z" fill="#ffffff" p-id="2347"></path><path d="M512 682.666667c-96.711111 0-170.666667-73.955556-170.666667-170.666667s73.955556-170.666667 170.666667-170.666667 170.666667 73.955556 170.666667 170.666667-73.955556 170.666667-170.666667 170.666667z m0-56.888889c62.577778 0 113.777778-51.2 113.777778-113.777778s-51.2-113.777778-113.777778-113.777778-113.777778 51.2-113.777778 113.777778 51.2 113.777778 113.777778 113.777778z" fill="#ffffff" p-id="2348"></path></svg>